<svg width="63" height="38" viewBox="0 0 63 38" fill="none" xmlns="http://www.w3.org/2000/svg">
<path fill-rule="evenodd" clip-rule="evenodd" d="M29.9436 37.5059C13.4062 37.5059 -3.8147e-06 29.1099 -3.8147e-06 18.7529C-3.8147e-06 8.39597 13.4062 0 29.9436 0C46.481 0 59.8872 8.39597 59.8872 18.7529C59.8872 21.0126 59.249 23.1789 58.0794 25.1851L62.5746 35.6713L50.1206 32.6093C44.798 35.6509 37.7167 37.5059 29.9436 37.5059Z" fill="#50ABD3"/>
<path d="M13.312 15.368L14.44 14.552C14.02 14.108 13.12 13.34 12.7 13.004L11.596 13.772C12.064 14.132 12.892 14.936 13.312 15.368ZM10.048 14.084L8.48797 14.696C8.72797 14.996 9.01597 15.452 9.19597 15.74C9.68797 16.604 10.132 17.696 10.612 18.812C11.224 20.252 11.848 22.28 12.22 23.792L13.876 23.372C13.48 22.016 12.544 19.46 11.98 18.152C11.548 17.144 11.008 15.956 10.516 15.032C10.384 14.804 10.144 14.312 10.048 14.084ZM7.45597 17.6L8.15197 19.136C9.63997 18.464 13.24 16.316 15.184 16.316C16.084 16.316 16.612 16.82 16.612 17.42C16.612 18.284 15.952 18.776 15.052 18.776C14.536 18.776 13.936 18.608 13.396 18.38L13.348 19.88C13.804 20.048 14.548 20.216 15.208 20.216C17.044 20.216 18.196 19.16 18.196 17.48C18.196 16.088 17.068 14.96 15.22 14.96C13.288 14.96 10.828 16.364 8.64397 17.216C8.43997 17.3 7.92397 17.492 7.45597 17.6ZM20.704 17.924L21.328 19.484C22.36 19.052 24.748 18.056 26.14 18.056C27.196 18.056 27.868 18.692 27.868 19.58C27.868 21.212 25.84 21.944 23.104 22.016L23.74 23.492C27.544 23.264 29.464 21.776 29.464 19.616C29.464 17.792 28.192 16.664 26.284 16.664C24.832 16.664 22.804 17.36 21.976 17.6C21.616 17.72 21.064 17.864 20.704 17.924ZM36.676 13.424L34.84 13.28C34.876 13.568 34.864 14.06 34.804 14.504C34.72 15.212 34.444 16.532 34.144 17.66C33.688 19.34 32.776 21.848 32.068 23.06L33.736 23.624C34.396 22.196 35.2 19.748 35.632 18.068C35.956 16.844 36.256 15.38 36.424 14.564C36.484 14.3 36.592 13.76 36.676 13.424ZM33.616 15.224C33.124 15.224 32.728 15.2 32.104 15.128L32.152 16.628C32.572 16.652 33.016 16.676 33.604 16.676C34.96 16.676 36.844 16.472 38.332 16.124V14.624C36.772 14.996 35.08 15.224 33.616 15.224ZM37.384 17.06V18.464C38.14 18.368 38.884 18.332 39.712 18.332C40.432 18.332 41.164 18.416 41.776 18.488L41.8 17.048C41.104 16.976 40.384 16.94 39.7 16.94C38.92 16.94 38.056 16.988 37.384 17.06ZM38.032 20.072L36.604 19.94C36.508 20.408 36.4 20.984 36.4 21.548C36.4 22.76 37.48 23.444 39.508 23.444C40.468 23.444 41.272 23.372 41.944 23.276L42.004 21.752C41.152 21.908 40.324 21.992 39.52 21.992C38.224 21.992 37.876 21.596 37.876 21.068C37.876 20.804 37.948 20.42 38.032 20.072ZM48.376 19.916H49.612L49.924 15.812L49.984 14.024H48.004L48.064 15.812L48.376 19.916ZM49 23.12C49.6 23.12 50.056 22.676 50.056 22.052C50.056 21.428 49.6 20.996 49 20.996C48.388 20.996 47.932 21.428 47.932 22.052C47.932 22.676 48.376 23.12 49 23.12Z" fill="white"/>
</svg>
