<svg width="63" height="38" viewBox="0 0 63 38" fill="none" xmlns="http://www.w3.org/2000/svg">
<mask id="path-1-inside-1_501_713" fill="white">
<path fill-rule="evenodd" clip-rule="evenodd" d="M29.9436 37.5059C13.4062 37.5059 3.8147e-05 29.1099 3.8147e-05 18.7529C3.8147e-05 8.39597 13.4062 0 29.9436 0C46.481 0 59.8872 8.39597 59.8872 18.7529C59.8872 21.0126 59.2491 23.1789 58.0794 25.1851L62.5746 35.6713L50.1207 32.6093C44.7981 35.6509 37.7168 37.5059 29.9436 37.5059Z"/>
</mask>
<path fill-rule="evenodd" clip-rule="evenodd" d="M29.9436 37.5059C13.4062 37.5059 3.8147e-05 29.1099 3.8147e-05 18.7529C3.8147e-05 8.39597 13.4062 0 29.9436 0C46.481 0 59.8872 8.39597 59.8872 18.7529C59.8872 21.0126 59.2491 23.1789 58.0794 25.1851L62.5746 35.6713L50.1207 32.6093C44.7981 35.6509 37.7168 37.5059 29.9436 37.5059Z" fill="white"/>
<path d="M58.0794 25.1851L56.7008 25.7761L56.4032 25.082L56.7836 24.4296L58.0794 25.1851ZM62.5746 35.6713L63.9533 35.0803L65.1391 37.8465L62.2165 37.1279L62.5746 35.6713ZM50.1207 32.6093L49.3764 31.307L49.8968 31.0096L50.4788 31.1527L50.1207 32.6093ZM1.50004 18.7529C1.50004 23.2291 4.40104 27.507 9.56648 30.742C14.7112 33.964 21.9117 36.0059 29.9436 36.0059V39.0059C21.4382 39.0059 13.6669 36.8498 7.97415 33.2845C2.30215 29.7323 -1.49996 24.6337 -1.49996 18.7529H1.50004ZM29.9436 1.5C21.9117 1.5 14.7112 3.54188 9.56648 6.76387C4.40104 9.99886 1.50004 14.2768 1.50004 18.7529H-1.49996C-1.49996 12.8721 2.30215 7.77357 7.97415 4.22134C13.6669 0.656106 21.4382 -1.5 29.9436 -1.5V1.5ZM58.3872 18.7529C58.3872 14.2768 55.4862 9.99886 50.3208 6.76387C45.1761 3.54188 37.9756 1.5 29.9436 1.5V-1.5C38.449 -1.5 46.2204 0.656106 51.9131 4.22134C57.5851 7.77357 61.3872 12.8721 61.3872 18.7529H58.3872ZM56.7836 24.4296C57.8336 22.6285 58.3872 20.7204 58.3872 18.7529H61.3872C61.3872 21.3048 60.6645 23.7294 59.3753 25.9406L56.7836 24.4296ZM61.196 36.2623L56.7008 25.7761L59.4581 24.5941L63.9533 35.0803L61.196 36.2623ZM50.4788 31.1527L62.9328 34.2147L62.2165 37.1279L49.7625 34.0659L50.4788 31.1527ZM29.9436 36.0059C37.4915 36.0059 44.3097 34.2024 49.3764 31.307L50.8649 33.9117C45.2865 37.0995 37.942 39.0059 29.9436 39.0059V36.0059Z" fill="#C62918" mask="url(#path-1-inside-1_501_713)"/>
<path d="M13.312 15.368L14.44 14.552C14.02 14.108 13.12 13.34 12.7 13.004L11.596 13.772C12.064 14.132 12.892 14.936 13.312 15.368ZM10.048 14.084L8.488 14.696C8.728 14.996 9.016 15.452 9.196 15.74C9.688 16.604 10.132 17.696 10.612 18.812C11.224 20.252 11.848 22.28 12.22 23.792L13.876 23.372C13.48 22.016 12.544 19.46 11.98 18.152C11.548 17.144 11.008 15.956 10.516 15.032C10.384 14.804 10.144 14.312 10.048 14.084ZM7.456 17.6L8.152 19.136C9.64 18.464 13.24 16.316 15.184 16.316C16.084 16.316 16.612 16.82 16.612 17.42C16.612 18.284 15.952 18.776 15.052 18.776C14.536 18.776 13.936 18.608 13.396 18.38L13.348 19.88C13.804 20.048 14.548 20.216 15.208 20.216C17.044 20.216 18.196 19.16 18.196 17.48C18.196 16.088 17.068 14.96 15.22 14.96C13.288 14.96 10.828 16.364 8.644 17.216C8.44 17.3 7.924 17.492 7.456 17.6ZM20.704 17.924L21.328 19.484C22.36 19.052 24.748 18.056 26.14 18.056C27.196 18.056 27.868 18.692 27.868 19.58C27.868 21.212 25.84 21.944 23.104 22.016L23.74 23.492C27.544 23.264 29.464 21.776 29.464 19.616C29.464 17.792 28.192 16.664 26.284 16.664C24.832 16.664 22.804 17.36 21.976 17.6C21.616 17.72 21.064 17.864 20.704 17.924ZM36.676 13.424L34.84 13.28C34.876 13.568 34.864 14.06 34.804 14.504C34.72 15.212 34.444 16.532 34.144 17.66C33.688 19.34 32.776 21.848 32.068 23.06L33.736 23.624C34.396 22.196 35.2 19.748 35.632 18.068C35.956 16.844 36.256 15.38 36.424 14.564C36.484 14.3 36.592 13.76 36.676 13.424ZM33.616 15.224C33.124 15.224 32.728 15.2 32.104 15.128L32.152 16.628C32.572 16.652 33.016 16.676 33.604 16.676C34.96 16.676 36.844 16.472 38.332 16.124V14.624C36.772 14.996 35.08 15.224 33.616 15.224ZM37.384 17.06V18.464C38.14 18.368 38.884 18.332 39.712 18.332C40.432 18.332 41.164 18.416 41.776 18.488L41.8 17.048C41.104 16.976 40.384 16.94 39.7 16.94C38.92 16.94 38.056 16.988 37.384 17.06ZM38.032 20.072L36.604 19.94C36.508 20.408 36.4 20.984 36.4 21.548C36.4 22.76 37.48 23.444 39.508 23.444C40.468 23.444 41.272 23.372 41.944 23.276L42.004 21.752C41.152 21.908 40.324 21.992 39.52 21.992C38.224 21.992 37.876 21.596 37.876 21.068C37.876 20.804 37.948 20.42 38.032 20.072ZM48.076 19.916H49.636C49.444 18.26 52.072 18.044 52.072 16.292C52.072 14.696 50.8 13.88 49.06 13.88C47.776 13.88 46.72 14.468 45.952 15.356L46.936 16.256C47.524 15.644 48.124 15.308 48.856 15.308C49.804 15.308 50.38 15.716 50.38 16.448C50.38 17.612 47.824 18.032 48.076 19.916ZM48.868 23.12C49.468 23.12 49.924 22.676 49.924 22.052C49.924 21.428 49.468 20.996 48.868 20.996C48.256 20.996 47.8 21.428 47.8 22.052C47.8 22.676 48.244 23.12 48.868 23.12Z" fill="#C62918" fill-opacity="0.7"/>
</svg>
