<svg width="25" height="7" viewBox="0 0 25 7" fill="none" xmlns="http://www.w3.org/2000/svg">
<path d="M18.75 3.125C18.75 2.2962 19.0792 1.50134 19.6653 0.915292C20.2513 0.329241 21.0462 0 21.875 0C22.7038 0 23.4987 0.329241 24.0847 0.915292C24.6708 1.50134 25 2.2962 25 3.125C25 3.9538 24.6708 4.74866 24.0847 5.33471C23.4987 5.92076 22.7038 6.25 21.875 6.25C21.0462 6.25 20.2513 5.92076 19.6653 5.33471C19.0792 4.74866 18.75 3.9538 18.75 3.125ZM9.375 3.125C9.375 2.2962 9.70424 1.50134 10.2903 0.915292C10.8763 0.329241 11.6712 0 12.5 0C13.3288 0 14.1237 0.329241 14.7097 0.915292C15.2958 1.50134 15.625 2.2962 15.625 3.125C15.625 3.9538 15.2958 4.74866 14.7097 5.33471C14.1237 5.92076 13.3288 6.25 12.5 6.25C11.6712 6.25 10.8763 5.92076 10.2903 5.33471C9.70424 4.74866 9.375 3.9538 9.375 3.125ZM0 3.125C0 2.2962 0.32924 1.50134 0.915291 0.915292C1.50134 0.329241 2.2962 0 3.125 0C3.9538 0 4.74866 0.329241 5.33471 0.915292C5.92076 1.50134 6.25 2.2962 6.25 3.125C6.25 3.9538 5.92076 4.74866 5.33471 5.33471C4.74866 5.92076 3.9538 6.25 3.125 6.25C2.2962 6.25 1.50134 5.92076 0.915291 5.33471C0.32924 4.74866 0 3.9538 0 3.125Z" fill="white"/>
</svg>
