<svg width="15" height="18" viewBox="0 0 15 18" fill="none" xmlns="http://www.w3.org/2000/svg">
<path d="M7.36364 3.6V0L2.76136 4.5L7.36364 9V5.4C8.82835 5.4 10.2331 5.96893 11.2688 6.98162C12.3045 7.99432 12.8864 9.36783 12.8864 10.8C12.8864 12.2322 12.3045 13.6057 11.2688 14.6184C10.2331 15.6311 8.82835 16.2 7.36364 16.2C5.89892 16.2 4.49419 15.6311 3.45848 14.6184C2.42277 13.6057 1.84091 12.2322 1.84091 10.8H0C0 12.7096 0.77581 14.5409 2.15676 15.8912C3.53771 17.2414 5.41068 18 7.36364 18C9.31659 18 11.1896 17.2414 12.5705 15.8912C13.9515 14.5409 14.7273 12.7096 14.7273 10.8C14.7273 8.89044 13.9515 7.05909 12.5705 5.70883C11.1896 4.35857 9.31659 3.6 7.36364 3.6Z" fill="#333333"/>
</svg>
