<svg width="15" height="15" viewBox="0 0 15 15" fill="none" xmlns="http://www.w3.org/2000/svg">
<path d="M7.5107 15C7.61084 15 7.70383 15 7.79682 14.97C8.26177 14.865 8.64804 14.535 8.82687 14.085C8.8984 13.905 8.94131 13.7025 8.94131 13.5H6.08008C6.08008 13.8978 6.23081 14.2794 6.4991 14.5607C6.76739 14.842 7.13128 15 7.5107 15ZM12.1602 6.375C12.1602 4.0725 10.6294 2.145 8.58366 1.635V1.125C8.58366 0.826631 8.47062 0.540483 8.2694 0.329505C8.06818 0.118526 7.79527 0 7.5107 0C7.22613 0 6.95322 0.118526 6.752 0.329505C6.55078 0.540483 6.43774 0.826631 6.43774 1.125V1.635C4.38481 2.145 2.8612 4.0725 2.8612 6.375V10.5L1.43058 12V12.75H13.5908V12L12.1602 10.5V6.375ZM13.5694 6H15C14.8927 3.5925 13.7625 1.4775 12.0529 0.1125L11.03 1.185C12.4892 2.25 13.4621 4.0125 13.5694 6ZM3.99139 1.185L2.9685 0.1125C1.25891 1.4775 0.128725 3.5925 -3.05176e-05 6H1.43058C1.55934 4.0125 2.53216 2.25 3.99139 1.185Z" fill="#50ABD3"/>
</svg>
