<svg width="15" height="17" viewBox="0 0 15 17" fill="none" xmlns="http://www.w3.org/2000/svg">
<path d="M13.3333 14.85H1.66664V5.775H13.3333V14.85ZM13.3333 1.65H12.5V0H10.8333V1.65H4.16664V0H2.49997V1.65H1.66664C0.741636 1.65 -3.05176e-05 2.3925 -3.05176e-05 3.3V14.85C-3.05176e-05 15.2876 0.175564 15.7073 0.488125 16.0167C0.800685 16.3262 1.22461 16.5 1.66664 16.5H13.3333C13.7753 16.5 14.1993 16.3262 14.5118 16.0167C14.8244 15.7073 15 15.2876 15 14.85V3.3C15 2.86239 14.8244 2.44271 14.5118 2.13327C14.1993 1.82384 13.7753 1.65 13.3333 1.65ZM11.275 8.2995L10.3916 7.425L6.32497 11.451L4.5583 9.702L3.67497 10.5765L6.32497 13.2L11.275 8.2995Z" fill="#50ABD3"/>
</svg>
