<svg width="17" height="12" viewBox="0 0 17 12" fill="none" xmlns="http://www.w3.org/2000/svg">
<path d="M10.3719 7.5C12.4171 7.5 16.5 8.4975 16.5 10.5V12H4.24373V10.5C4.24373 8.4975 8.3266 7.5 10.3719 7.5ZM10.3719 6C9.55922 6 8.77987 5.68393 8.20524 5.12132C7.63062 4.55871 7.3078 3.79565 7.3078 3C7.3078 2.20435 7.63062 1.44129 8.20524 0.87868C8.77987 0.31607 9.55922 0 10.3719 0C11.1845 0 11.9639 0.31607 12.5385 0.87868C13.1131 1.44129 13.4359 2.20435 13.4359 3C13.4359 3.79565 13.1131 4.55871 12.5385 5.12132C11.9639 5.68393 11.1845 6 10.3719 6ZM2.7117 4.1925L4.33565 2.595L5.4234 3.66L3.79178 5.25L5.4234 6.84L4.33565 7.905L2.7117 6.3075L1.08774 7.905L2.92212e-08 6.84L1.63162 5.25L2.92212e-08 3.66L1.08774 2.595L2.7117 4.1925Z" fill="#333333"/>
</svg>
