<svg width="16" height="18" viewBox="0 0 16 18" fill="none" xmlns="http://www.w3.org/2000/svg">
<path d="M13.9091 16.3636H4.90909V4.90909H13.9091V16.3636ZM13.9091 3.27273H4.90909C4.4751 3.27273 4.05888 3.44513 3.75201 3.75201C3.44513 4.05888 3.27273 4.4751 3.27273 4.90909V16.3636C3.27273 16.7976 3.44513 17.2138 3.75201 17.5207C4.05888 17.8276 4.4751 18 4.90909 18H13.9091C14.3431 18 14.7593 17.8276 15.0662 17.5207C15.3731 17.2138 15.5455 16.7976 15.5455 16.3636V4.90909C15.5455 4.4751 15.3731 4.05888 15.0662 3.75201C14.7593 3.44513 14.3431 3.27273 13.9091 3.27273ZM11.4545 0H1.63636C1.20237 0 0.786157 0.172402 0.47928 0.47928C0.172402 0.786158 0 1.20237 0 1.63636V13.0909H1.63636V1.63636H11.4545V0Z" fill="#333333"/>
</svg>
