<svg width="20" height="16" viewBox="0 0 20 16" fill="none" xmlns="http://www.w3.org/2000/svg">
<rect y="0.5" width="20" height="15" fill="white"/>
<path d="M10 2C9.27668 2 8.58299 2.29176 8.07153 2.81109C7.56006 3.33042 7.27273 4.03479 7.27273 4.76923C7.27273 5.50368 7.56006 6.20804 8.07153 6.72737C8.58299 7.2467 9.27668 7.53846 10 7.53846C10.7233 7.53846 11.417 7.2467 11.9285 6.72737C12.4399 6.20804 12.7273 5.50368 12.7273 4.76923C12.7273 4.03479 12.4399 3.33042 11.9285 2.81109C11.417 2.29176 10.7233 2 10 2ZM4.54545 4.00308C3.94269 4.00308 3.36461 4.24621 2.93839 4.67898C2.51217 5.11176 2.27273 5.69873 2.27273 6.31077C2.27273 6.61382 2.33151 6.9139 2.44573 7.19389C2.55994 7.47387 2.72735 7.72827 2.93839 7.94255C3.14944 8.15684 3.39998 8.32683 3.67572 8.4428C3.95146 8.55877 4.247 8.61846 4.54545 8.61846C5.34545 8.61846 6.04545 8.19385 6.44546 7.56615C5.83636 6.78154 5.45455 5.83077 5.45455 4.76923C5.45455 4.58462 5.45455 4.4 5.49091 4.21538C5.2 4.07692 4.88182 4.00308 4.54545 4.00308ZM15.4545 4.00308C15.1182 4.00308 14.8 4.07692 14.5091 4.21538C14.5455 4.4 14.5455 4.58462 14.5455 4.76923C14.5455 5.83077 14.1636 6.78154 13.5545 7.56615C13.9545 8.19385 14.6545 8.61846 15.4545 8.61846C15.753 8.61846 16.0485 8.55877 16.3243 8.4428C16.6 8.32683 16.8506 8.15684 17.0616 7.94255C17.2726 7.72827 17.4401 7.47387 17.5543 7.19389C17.6685 6.9139 17.7273 6.61382 17.7273 6.31077C17.7273 6.00772 17.6685 5.70764 17.5543 5.42765C17.4401 5.14767 17.2726 4.89327 17.0616 4.67898C16.8506 4.4647 16.6 4.29471 16.3243 4.17874C16.0485 4.06277 15.753 4.00308 15.4545 4.00308ZM10 9.38462C8.18182 9.38462 4.54545 10.3077 4.54545 12.1538V14H15.4545V12.1538C15.4545 10.3077 11.8182 9.38462 10 9.38462ZM3.33636 10.28C1.81818 10.5477 0 11.2677 0 12.4585V14H2.72727V12.1538C2.72727 11.4338 2.99091 10.7969 3.33636 10.28ZM16.6636 10.28C17.0091 10.7969 17.2727 11.4338 17.2727 12.1538V14H20V12.4585C20 11.2677 18.1818 10.5477 16.6636 10.28Z" fill="#50ABD3"/>
</svg>
