<svg width="21" height="15" viewBox="0 0 21 15" fill="none" xmlns="http://www.w3.org/2000/svg">
<rect x="0.5" width="20" height="15" fill="white"/>
<path d="M10.5 0C11.4946 0 12.4484 0.395088 13.1517 1.09835C13.8549 1.80161 14.25 2.75544 14.25 3.75C14.25 4.74456 13.8549 5.69839 13.1517 6.40165C12.4484 7.10491 11.4946 7.5 10.5 7.5C9.50544 7.5 8.55161 7.10491 7.84835 6.40165C7.14509 5.69839 6.75 4.74456 6.75 3.75C6.75 2.75544 7.14509 1.80161 7.84835 1.09835C8.55161 0.395088 9.50544 0 10.5 0ZM10.5 9.375C14.6438 9.375 18 11.0531 18 13.125V15H3V13.125C3 11.0531 6.35625 9.375 10.5 9.375Z" fill="#50ABD3"/>
</svg>
