<svg width="24" height="24" viewBox="0 0 24 24" fill="none" xmlns="http://www.w3.org/2000/svg">
<path d="M14.6667 21.6C14.6667 22.2365 14.3857 22.847 13.8856 23.2971C13.3855 23.7471 12.7072 24 12 24C11.2928 24 10.6145 23.7471 10.1144 23.2971C9.61429 22.847 9.33333 22.2365 9.33333 21.6H14.6667ZM12 0C12.3536 0 12.6928 0.126428 12.9428 0.351472C13.1929 0.576515 13.3333 0.88174 13.3333 1.2V2.496C17.12 3.072 20 6.036 20 9.6V16.8L24 20.4H0L4 16.8V9.6C4 6.036 6.88 3.072 10.6667 2.496V1.2C10.6667 0.88174 10.8071 0.576515 11.0572 0.351472C11.3072 0.126428 11.6464 0 12 0Z" fill="white"/>
</svg>
