<svg width="20" height="20" viewBox="0 0 20 20" fill="none" xmlns="http://www.w3.org/2000/svg">
<path d="M12.2222 18C12.2222 18.5304 11.9881 19.0391 11.5713 19.4142C11.1546 19.7893 10.5894 20 10 20C9.41063 20 8.8454 19.7893 8.42865 19.4142C8.0119 19.0391 7.77778 18.5304 7.77778 18H12.2222ZM10 0C10.2947 0 10.5773 0.105357 10.7857 0.292893C10.994 0.48043 11.1111 0.734784 11.1111 1V2.08C14.2667 2.56 16.6667 5.03 16.6667 8V14L20 17H0L3.33333 14V8C3.33333 5.03 5.73333 2.56 8.88889 2.08V1C8.88889 0.734784 9.00595 0.48043 9.21433 0.292893C9.4227 0.105357 9.70532 0 10 0Z" fill="white"/>
</svg>
